<?xml version="1.0" encoding="UTF-8"?>
<svg id="Layer_1" xmlns="http://www.w3.org/2000/svg" xmlns:xlink="http://www.w3.org/1999/xlink" version="1.1" viewBox="0 0 257.86 208.85">
  <!-- Generator: Adobe Illustrator 29.8.1, SVG Export Plug-In . SVG Version: 2.1.1 Build 2)  -->
  <defs>
    <style>
      .st0 {
        fill: none;
      }

      .st1 {
        clip-path: url(#clippath);
      }
    </style>
    <clipPath id="clippath">
      <rect class="st0" x="14.55" y="11.79" width="228.75" height="185.27"/>
    </clipPath>
  </defs>
  <g class="st1">
    <path d="M156.32,64.2l-.29-.63s.04-.03.01-.11c-.05-.15-.09-.3-.11-.39-.05-.21-.02-.26.11-.3.28,0,.81-.19.32-.36-.43-.14-1.52.03-2.75.5-1.23.46-2.62,1.17-4.02,2.03-2.82,1.7-5.62,4.01-8.34,6.46-2.73,2.47-5.39,5.13-7.98,7.9-10.31,11.19-19.51,23.84-28.01,36.8-2.16,3.46-4.6,6.69-6.99,9.85-2.42,3.16-4.86,6.29-7.38,9.35-5.06,6.12-10.28,12.1-15.86,17.77-5.61,5.64-11.45,11.13-18.08,15.8-3.32,2.32-6.79,4.5-10.61,6.19-3.81,1.66-8.03,2.91-12.55,2.75-4.49-.15-9.08-1.93-12.7-4.67-.38-.27-1-.76-1.42-1.13-.46-.39-.91-.83-1.34-1.31-.88-.93-1.72-2.03-2.38-3.35-1.39-2.6-1.78-6.18-.98-9.27.79-3.1,2.37-5.69,4.16-7.84,1.8-2.17,3.88-3.93,6.12-5.37,4.49-2.86,9.68-4.53,15.26-4.57,2.78-.02,5.66.4,8.5,1.28,1.42.44,2.83,1,4.2,1.67.35.16.68.35,1.02.53l.86.48,1.35.78c3.93,2.31,7.29,4.74,10.58,7.13,6.46,4.84,12.21,9.33,18.11,12.91,2.95,1.79,5.96,3.33,9.08,4.6l.58.24.58.24,1.32.52c.76.3,1.59.6,2.43.9,1.67.59,3.36,1.12,5.06,1.61,6.81,1.96,13.88,3.15,21.05,3.43,14.33.67,28.98-2.59,42.14-9.08,3.31-1.59,6.5-3.44,9.6-5.41,3.07-1.96,6.2-4.18,8.92-6.4,5.52-4.54,10.44-10.04,14.68-16.05,8.46-12.04,14.41-26.14,16.78-40.67,1.17-7.26,1.41-14.65.42-21.81-1-7.14-3.2-14.08-6.9-20.15-.92-1.52-1.92-2.99-2.99-4.39-1.1-1.45-2.18-2.66-3.55-4.18-2.47-2.67-5.17-5.35-7.97-7.77-5.61-4.89-11.81-9.07-18.44-12.3-13.26-6.43-28.48-8.71-42.73-5.61-7.1,1.53-13.97,4.23-20.12,8.11-6.21,3.85-11.55,8.75-16.64,14.41-10.03,11.2-18.68,24.1-24.08,37.68-1.31,3.39-2.38,6.82-3.09,10.17-.73,3.35-.97,6.67-.71,9.56.25,2.91,1.14,5.25,2.42,6.78,1.24,1.56,2.98,2.56,5.37,3.33,5.07,1.65,7.85,7.1,6.21,12.17-1.65,5.07-7.1,7.85-12.17,6.21-.51-.16-.99-.37-1.45-.6l-.53-.28c-2.38-1.25-4.73-2.82-6.86-4.78-2.12-1.96-4.02-4.3-5.44-6.85-2.89-5.16-3.71-10.76-3.6-15.66.12-4.96,1.17-9.44,2.44-13.67,1.3-4.22,2.97-8.17,4.82-11.94,3.72-7.55,8.09-14.51,12.95-21.05,4.82-6.57,10.04-12.8,15.76-18.59,2.89-2.89,5.76-5.71,9.02-8.42,3.23-2.67,6.68-5.09,10.3-7.22,7.26-4.22,15.17-7.38,23.43-9,8.25-1.64,16.75-1.82,25.04-.68,8.29,1.15,16.32,3.7,23.81,7.25,7.51,3.54,14.47,8.13,20.74,13.46,3.16,2.67,6.07,5.48,8.95,8.53,1.27,1.37,2.83,3.07,4.11,4.74,1.32,1.69,2.55,3.45,3.68,5.28,4.51,7.31,7.42,15.52,8.74,23.86,1.35,8.35,1.25,16.81.12,25.04-1.13,8.24-3.3,16.27-6.27,23.98-2.97,7.71-6.77,15.1-11.38,22.02-4.62,6.91-10.05,13.37-16.5,18.97-6.44,5.49-13.27,10.06-20.64,14.05-14.68,7.89-31.2,12.74-48.24,13.64-8.51.42-17.13-.18-25.56-1.88-2.11-.43-4.2-.91-6.28-1.46-1.03-.28-2.08-.57-3.17-.89l-1.46-.44-.81-.26-.79-.27c-4.23-1.46-8.31-3.3-12.18-5.37-7.78-4.11-14.43-9.32-20.53-13.83-3.01-2.28-6.03-4.42-8.79-6.18l-1.17-.73-.69-.41c-.37-.21-.78-.4-1.23-.55-.89-.32-1.92-.54-3.05-.72-2.25-.36-4.95-.47-7.62-.17-2.65.28-5.35,1.09-6.77,2.18-.72.53-1.27,1.11-1.32,2.21,0,.53.11,1.17.38,1.82.14.32.31.65.51.98.23.37.32.56.64.96,2.05,2.67,5.13,4.2,8.49,4.25,3.35.11,6.86-.88,10.2-2.37,3.34-1.51,6.56-3.48,9.6-5.73,6.08-4.52,11.7-9.84,16.9-15.53,5.21-5.69,10.12-11.69,14.71-17.93,4.57-6.21,9.06-12.67,12.68-19.22,7.72-13.85,15.86-27.42,25.34-40.56,4.79-6.59,9.83-13,16.66-19,1.74-1.49,3.64-2.95,5.89-4.28,2.26-1.31,4.89-2.56,8.36-3.16,1.72-.29,3.68-.37,5.72-.06,2.03.3,4.1,1.03,5.89,2.03,1.79,1.01,3.31,2.25,4.54,3.52.64.64,1.18,1.28,1.7,1.92.26.32.56.74.83,1.12l.47.63.05.06c3.31,4.46,2.37,10.75-2.08,14.06-4.46,3.31-10.75,2.38-14.06-2.08-.41-.56-.78-1.19-1.06-1.79"/>
    <path d="M194.55,188.6c2.22,3.99,5.49,8.1,10.21,8.43,9.96.7,8.56-10.62,2.51-14.81-4.21-2.92-16.53-.46-12.72,6.38"/>
    <path d="M108.98,106.4c.14.07.47.24.39.2-.02,0,.05.04.13.08.16.06.33.13.54.18.4.1.92.14,1.5.12,1.15-.03,2.51-.31,3.88-.71,2.77-.82,5.64-2.11,8.49-3.5,2.86-1.39,5.72-2.91,8.64-4.4,2.93-1.48,5.9-2.97,9.18-4.08h0c.73-.55,1.76-.4,2.31.33.41.54.43,1.25.11,1.81l-.46.81c-5.81,10.16-12.83,19.08-19.73,27.91-3.42,4.42-6.92,8.78-9.91,13.2-1.45,2.18-2.84,4.51-3.45,6.38-.15.44-.23.83-.27,1.04-.04.22-.05.13-.24-.07-.2-.21-.41-.22-.26-.12.15.09.51.2,1.02.23,1.83.19,4.27-.59,6.56-1.69,2.3-1.16,4.57-2.66,6.77-4.31,4.41-3.29,8.5-7.2,12.49-11.21,3.97-4.03,7.82-8.23,11.68-12.47,3.87-4.24,7.65-8.52,11.9-12.72,1.11-1.1,2.91-1.09,4,.03.71.72.96,1.73.74,2.65v.05h-.01c-.3,5.98-1.84,11.85-3.39,17.28-1.53,5.46-3.01,10.53-3.91,15.68-.25,1.27-.3,2.1-.33,3.13,0,.98.06,1.93.22,2.8.26,1.76,1.05,2.91,1.1,3.02.02.06.02.11.08.18.02.03.07.06.14.09l.1.04h.53c.34.04.92.04,1.41,0,.5-.03,1.01-.09,1.53-.18,2.06-.34,4.18-1.22,6.21-2.49,4.07-2.6,7.61-6.64,10.95-10.93,1.67-2.15,3.31-4.45,5.07-6.76,1.58-2.09,3.11-4.4,4.58-6.76,5.87-9.47,11.39-19.39,16.61-29.36.83-1.59,2.62-1.95,4.29-1.95h0c1.61,0,3.04-.13,4.43.34l4.17,1.23.99.27c.35.11.48.11.98.29.53.17,1.02.35,1.64.65.59.32,1.37.67,2.27,1.72.43.48.78,1.35.77,1.49-.01.02-.04-.03-.17-.23-.12-.19-.44-.59-.92-.88-.47-.29-.93-.38-1.2-.39-.26-.01-.41.02-.5.04-.32.1-.15.15-.05.17.12.02.29.02.46.03.71.03,1.49-.04,2.3-.04h.03c1.09,0,1.95.94,1.92,2.04-.01.5-.22.95-.53,1.29-.56.6-1.15,1.11-1.82,1.67-.17.14-.36.27-.59.41-.26.13-.44.29-1.13.43-.18.03-.43.06-.78.04-.36-.02-.91-.14-1.47-.48-.56-.34-.93-.81-1.1-1.08l-.29-.48c-.15-.21.04.33.2.54.38.51.45.55.35.64-.08.06-.33.1-.53.16-.23.08-.84-.01-1.22-.04l-1.2-.13-4.54-.42c-1.5-.19-2.96-1.45-4.24-1.45h0l4.29-2.16c-2.67,5.06-5.3,9.98-8.02,15-2.69,5.03-5.42,9.98-8.35,14.96-1.48,2.48-2.94,4.96-4.68,7.47-1.58,2.27-3.14,4.65-4.85,7.04-3.41,4.78-7.27,9.54-12.43,13.57-2.57,2.02-5.55,3.82-8.95,5-.85.29-1.73.54-2.62.74-.92.2-1.74.35-2.82.46l-.53.06c-.32.03-.64.02-.96.03-.64,0-1.3-.04-1.97-.15-1.33-.21-2.68-.66-3.88-1.31-2.43-1.33-4.15-3.31-5.29-5.23-1.13-1.97-1.76-3.93-2.17-5.85-.37-1.93-.48-3.82-.37-5.67.07-1.81.46-3.79.85-5.28,1.5-5.95,3.85-11.59,6.42-16.69,2.55-5.13,5.07-9.89,7.39-14.95l4.73,2.72c-3.97,3.8-7.72,8.2-11.55,12.45-3.82,4.29-7.68,8.59-11.71,12.76-4.03,4.19-8.22,8.26-12.84,12.05-2.32,1.88-4.77,3.68-7.53,5.22-2.76,1.54-5.82,2.95-9.78,3.14-.92.04-2-.01-3.22-.35-1.2-.33-2.71-1.12-3.75-2.5-1.05-1.36-1.42-2.91-1.53-4.12-.1-1.23,0-2.28.16-3.23.7-3.74,2.03-6.54,3.4-9.34,2.78-5.5,6.11-10.39,9.72-15.03,3.61-4.63,7.52-8.96,11.74-12.98,4.25-3.99,8.69-7.78,13.83-10.88l1.96,2.95c-2.74,1.33-5.39,3.1-8.04,4.9-2.66,1.81-5.31,3.7-8.08,5.52-2.78,1.82-5.64,3.61-8.94,5.08-1.66.72-3.43,1.39-5.5,1.75-1.04.18-2.15.28-3.35.2-.6-.03-1.22-.13-1.85-.27-.31-.07-.62-.15-1.03-.29l-.73-.26h0c-2.25-.81-3.42-3.27-2.62-5.52.8-2.25,3.27-3.42,5.52-2.62.19.07.39.16.56.24"/>
  </g>
</svg>